#N canvas 0 32 1366 665 12;
#X declare -path cyclone;
#X obj -167 14 declare -path cyclone;
#X obj 527 234 noise~;
#X obj 513 597 output~;
#X obj 910 342 line;
#X floatatom 903 378 5 0 0 0 - - - 0;
#X obj 917 146 bng 20 250 50 0 empty empty empty 0 -10 0 12 #fcfcfc #000000 #000000;
#X obj 558 482 *~ 1;
#X obj 917 118 metro 500;
#X obj 918 84 tgl 20 0 empty empty empty 0 -10 0 12 #fcfcfc #000000 #000000 0 1;
#X msg 910 305 1 \, 0 \$1;
#X floatatom 914 201 5 0 0 0 - - - 0;
#X floatatom 909 275 5 0 0 0 - - - 0;
#X obj 914 176 random 100;
#X floatatom 977 83 5 50 1000 0 - - - 0;
#X obj 913 233 scale 0 99 10 100;
#X floatatom 1005 193 5 0 0 0 - - - 0;
#X obj 172 418 osc~ 440;
#X obj 279 430 *~ 1, f 7;
#X obj 389 270 vsl 20 170 0 1 0 0 empty empty empty 0 -9 0 12 #fcfcfc #000000 #000000 0 1;
#X obj 458 309 line;
#X floatatom 451 345 5 0 0 0 - - - 0;
#X obj 465 113 bng 20 250 50 0 empty empty empty 0 -10 0 12 #fcfcfc #000000 #000000;
#X obj 464 85 metro 500;
#X obj 466 51 tgl 20 0 empty empty empty 0 -10 0 12 #fcfcfc #000000 #000000 0 1;
#X msg 458 272 1 \, 0 \$1;
#X floatatom 462 168 5 0 0 0 - - - 0;
#X floatatom 457 242 5 0 0 0 - - - 0;
#X obj 462 143 random 100;
#X floatatom 525 50 5 50 1000 0 - - - 0;
#X obj 461 200 scale 0 99 10 100;
#X floatatom 553 160 5 0 0 0 - - - 0;
#X obj 297 484 *~ 1, f 7;
#X floatatom 589 112 5 0 0 0 - - - 0;
#X floatatom 579 13 5 50 1000 0 - - - 0;
#X obj 343 34 tgl 50 0 empty empty empty 0 -10 0 12 #fcfcfc #000000 #000000 0 1;
#X obj 969 437 *~ 1, f 7;
#X obj 1050 276 vsl 20 170 0 1 0 0 empty empty empty 0 -9 0 12 #fcfcfc #000000 #000000 0 1;
#X msg -222 298 73.42;
#X msg -173 297 87.31;
#X msg -116 297 90;
#X msg -57 296 110;
#X msg -2 296 130.81;
#X msg 60 296 146.83;
#X msg 118 294 164.81;
#X msg 172 293 185;
#X msg 232 292 233.08;
#X msg 288 288 277.18;
#X obj -92 122 random 10;
#X obj -89 151 + 1;
#X floatatom -89 192 5 0 0 0 - - - 0;
#X obj -90 229 sel 1 2 3 4 5 6 7 8 9 10;
#X obj -104 58 metro 500, f 13;
#X obj -98 90 bng 20 250 50 0 empty empty empty 0 -10 0 12 #fcfcfc #000000 #000000;
#X floatatom 2 43 5 0 0 0 - - - 0;
#X obj -4 384 *~ 1;
#X floatatom 60 371 5 0 0 0 - - - 0;
#X obj -210 58 counter 4;
#X floatatom -210 83 5 0 0 0 - - - 0;
#X obj -213 116 mod 4;
#X floatatom -213 141 5 0 0 0 - - - 0;
#X obj -210 172 sel 0;
#X obj -210 203 bng 20 250 50 0 empty empty empty 0 -10 0 12 #fcfcfc #000000 #000000;
#X msg -211 256 seed \$1;
#X obj -212 228 random 5;
#X connect 1 0 6 0;
#X connect 3 0 4 0;
#X connect 4 0 6 1;
#X connect 5 0 12 0;
#X connect 6 0 35 0;
#X connect 7 0 5 0;
#X connect 8 0 7 0;
#X connect 9 0 3 0;
#X connect 10 0 14 0;
#X connect 11 0 9 0;
#X connect 12 0 10 0;
#X connect 13 0 7 1;
#X connect 14 0 11 0;
#X connect 15 0 14 4;
#X connect 16 0 17 0;
#X connect 17 0 31 0;
#X connect 18 0 17 1;
#X connect 19 0 20 0;
#X connect 20 0 31 1;
#X connect 21 0 27 0;
#X connect 22 0 21 0;
#X connect 23 0 22 0;
#X connect 24 0 19 0;
#X connect 25 0 29 0;
#X connect 26 0 24 0;
#X connect 27 0 25 0;
#X connect 28 0 22 1;
#X connect 29 0 26 0;
#X connect 30 0 29 4;
#X connect 31 0 2 0;
#X connect 32 0 30 0;
#X connect 32 0 15 0;
#X connect 33 0 28 0;
#X connect 33 0 13 0;
#X connect 33 0 53 0;
#X connect 34 0 23 0;
#X connect 34 0 8 0;
#X connect 34 0 51 0;
#X connect 35 0 2 0;
#X connect 36 0 35 1;
#X connect 37 0 54 0;
#X connect 38 0 54 0;
#X connect 39 0 54 0;
#X connect 40 0 54 0;
#X connect 41 0 54 0;
#X connect 42 0 54 0;
#X connect 43 0 54 0;
#X connect 44 0 54 0;
#X connect 45 0 54 0;
#X connect 46 0 54 0;
#X connect 47 0 48 0;
#X connect 48 0 49 0;
#X connect 49 0 50 0;
#X connect 50 0 37 0;
#X connect 50 1 38 0;
#X connect 50 2 39 0;
#X connect 50 3 40 0;
#X connect 50 4 41 0;
#X connect 50 5 42 0;
#X connect 50 6 43 0;
#X connect 50 7 44 0;
#X connect 50 8 45 0;
#X connect 50 9 46 0;
#X connect 51 0 52 0;
#X connect 52 0 47 0;
#X connect 52 0 56 0;
#X connect 53 0 51 1;
#X connect 54 0 16 0;
#X connect 55 0 54 1;
#X connect 56 0 57 0;
#X connect 57 0 58 0;
#X connect 58 0 59 0;
#X connect 59 0 60 0;
#X connect 60 0 61 0;
#X connect 61 0 63 0;
#X connect 62 0 47 0;
#X connect 63 0 62 0;
