#N canvas 292 113 713 459 12;
#X obj 160 95 bng 20 250 50 0 empty empty empty 0 -10 0 12 #fcfcfc #000000 #000000;
#X obj 159 232 print;
#X msg 159 158 Hola :);
#X obj 307 309 select 1 2 3;
#X obj 308 194 random 3;
#X obj 307 157 bng 20 250 50 0 empty empty empty 0 -10 0 12 #fcfcfc #000000 #000000;
#X obj 291 363 bng 20 250 50 0 empty empty empty 0 -10 0 12 #fcfcfc #000000 #000000;
#X obj 350 368 bng 20 250 50 0 empty empty empty 0 -10 0 12 #fcfcfc #000000 #000000;
#X obj 388 375 bng 20 250 50 0 empty empty empty 0 -10 0 12 #fcfcfc #000000 #000000;
#X floatatom 313 261 5 0 0 0 - - - 0;
#X obj 308 229 + 1;
#X obj 306 123 metro 500;
#X obj 304 86 tgl 20 0 empty empty empty 0 -10 0 12 #fcfcfc #000000 #000000 0 1;
#X floatatom 393 56 5 0 0 0 - - - 0;
#X obj 294 497 osc~ 440;
#X obj 290 559 *~ 1;
#X obj 54 7231 output~;
#X obj 64 7241 output~;
#X obj 74 7251 output~;
#X obj 74 7314;
#X obj 290 607 output~;
#X msg 265 434 440;
#X msg 360 439 520;
#X msg 434 427 330;
#X connect 0 0 2 0;
#X connect 2 0 1 0;
#X connect 3 0 6 0;
#X connect 3 1 7 0;
#X connect 3 2 8 0;
#X connect 4 0 10 0;
#X connect 5 0 4 0;
#X connect 6 0 21 0;
#X connect 7 0 22 0;
#X connect 8 0 23 0;
#X connect 9 0 3 0;
#X connect 10 0 9 0;
#X connect 11 0 5 0;
#X connect 12 0 11 0;
#X connect 13 0 11 1;
#X connect 14 0 15 0;
#X connect 15 0 20 0;
#X connect 21 0 14 0;
#X connect 22 0 14 0;
#X connect 23 0 14 0;
