#N canvas 328 48 1024 481 12;
#X declare -path cyclone;
#X obj 547 754 output~;
#X obj 465 692 clip~ -0.9 0.9;
#X obj 691 683 clip~ -0.9 0.9;
#X text 812 683 "Limitador" para proteger nuestros oídos.;
#X obj 474 516 *~ 1;
#X msg 367 863 start;
#X msg 367 886 stop;
#X obj 692 787 vu 20 200 empty empty -1 -10 0 12 #404040 #000000 1 0;
#X obj 467 785 vu 20 200 empty empty -1 -10 0 12 #404040 #000000 1 0;
#X obj 466 725 env~;
#X obj 466 754 - 100;
#X obj 691 727 env~;
#X obj 691 756 - 100;
#X obj 310 843 writesf~ 2;
#X obj 325 323 osc~ 100;
#X obj 325 354 *~ 1;
#X floatatom 474 483 5 0 1 0 - - - 0;
#X obj 575 316 line;
#X floatatom 575 346 5 0 0 0 - - - 0;
#X obj 571 61 metro 100;
#X obj 571 97 bng 20 250 50 0 empty empty empty 0 -10 0 12 #fcfcfc #000000 #000000;
#X obj 571 25 tgl 20 0 empty empty empty 0 -10 0 12 #fcfcfc #000000 #000000 0 1;
#X floatatom 649 25 5 0 0 0 - - - 0;
#X floatatom 325 293 5 0 0 0 - - - 0;
#X obj 575 197 random 100;
#X floatatom 575 227 5 0 0 0 - - - 0;
#X obj 15 24 declare -path cyclone;
#X obj 575 256 scale 0 99 100 500;
#X msg 575 286 1 \, 0 \$1;
#X obj 302 48 counter 4;
#X obj 302 79 + 1;
#X obj 302 140 mod 4;
#X floatatom 302 110 5 0 0 0 - - - 0;
#X floatatom 302 171 5 0 0 0 - - - 0;
#X obj 302 201 sel 0;
#X obj 265 231 bng 20 250 50 0 empty empty empty 0 -10 0 12 #fcfcfc #000000 #000000;
#X obj 325 231 bng 20 250 50 0 empty empty empty 0 -10 0 12 #fcfcfc #000000 #000000;
#X msg 231 269 50;
#X msg 325 262 88;
#X msg 311 805 open musica3.wav;
#X obj 696 501 *~ 1;
#X floatatom 696 468 5 0 1 0 - - - 0;
#X obj 474 415 random 100;
#X obj 474 449 scale 0 99 0 1;
#X obj 571 133 t b b b b;
#X obj 696 400 random 100;
#X obj 696 434 scale 0 99 0 1;
#X obj 906 81 bng 20 250 50 0 empty empty empty 0 -10 0 12 #fcfcfc #000000 #000000;
#X obj 906 106 openpanel;
#X obj 919 139 print;
#X msg 904 176 open \$1;
#X obj 903 304 *~ 1;
#X obj 903 214 readsf~ 2;
#X obj 961 305 *~ 1;
#X floatatom 1009 261 5 0 1 0 - - - 0;
#X msg 784 167 1;
#X msg 851 170 0;
#X obj 987 145 symbol;
#X obj 786 94 bng 20 250 50 0 empty empty empty 0 -10 0 12 #00ff04 #000000 #000000;
#X obj 785 122 t b b;
#X obj 843 93 bng 20 250 50 0 empty empty empty 0 -10 0 12 #ff0400 #000000 #000000;
#X obj 842 121 t b b;
#X connect 1 0 9 0;
#X connect 1 0 13 0;
#X connect 1 0 0 0;
#X connect 2 0 11 0;
#X connect 2 0 13 1;
#X connect 2 0 0 1;
#X connect 4 0 1 0;
#X connect 5 0 13 0;
#X connect 6 0 13 0;
#X connect 9 0 10 0;
#X connect 10 0 8 0;
#X connect 11 0 12 0;
#X connect 12 0 7 0;
#X connect 14 0 15 0;
#X connect 15 0 4 0;
#X connect 15 0 40 0;
#X connect 16 0 4 1;
#X connect 17 0 18 0;
#X connect 18 0 15 1;
#X connect 19 0 20 0;
#X connect 20 0 44 0;
#X connect 21 0 19 0;
#X connect 22 0 19 1;
#X connect 23 0 14 0;
#X connect 24 0 25 0;
#X connect 25 0 27 0;
#X connect 27 0 28 0;
#X connect 28 0 17 0;
#X connect 29 0 30 0;
#X connect 30 0 32 0;
#X connect 31 0 33 0;
#X connect 32 0 31 0;
#X connect 33 0 34 0;
#X connect 34 0 35 0;
#X connect 34 1 36 0;
#X connect 35 0 37 0;
#X connect 36 0 38 0;
#X connect 37 0 23 0;
#X connect 38 0 23 0;
#X connect 39 0 13 0;
#X connect 40 0 2 0;
#X connect 41 0 40 1;
#X connect 42 0 43 0;
#X connect 43 0 16 0;
#X connect 44 0 29 0;
#X connect 44 1 24 0;
#X connect 44 2 42 0;
#X connect 44 3 45 0;
#X connect 45 0 46 0;
#X connect 46 0 41 0;
#X connect 47 0 48 0;
#X connect 48 0 49 0;
#X connect 48 0 50 0;
#X connect 48 0 57 0;
#X connect 50 0 52 0;
#X connect 51 0 1 0;
#X connect 52 0 51 0;
#X connect 52 1 53 0;
#X connect 53 0 2 0;
#X connect 54 0 51 1;
#X connect 54 0 53 1;
#X connect 55 0 52 0;
#X connect 56 0 52 0;
#X connect 57 0 50 0;
#X connect 58 0 59 0;
#X connect 59 0 55 0;
#X connect 59 1 57 0;
#X connect 60 0 61 0;
#X connect 61 0 56 0;
#X connect 61 1 57 0;
